<?xml version="1.0"?>
<svg xmlns="http://www.w3.org/2000/svg" xmlns:xlink="http://www.w3.org/1999/xlink" xmlns:svgjs="http://svgjs.com/svgjs" version="1.1" width="512" height="512" x="0" y="0" viewBox="0 0 24 24" style="enable-background:new 0 0 512 512" xml:space="preserve" class=""><g><g xmlns="http://www.w3.org/2000/svg"><path d="m22 10.1c0-5.51-4.49-10-10-10s-10 4.49-10 10c0 1.46.33 2.9.94 4.22-.48 1.58-.14 3.36 1.02 4.65.92 1.03 2.24 1.62 3.62 1.62h.26v1.68c0 .95.78 1.73 1.73 1.73h4.86c.95 0 1.73-.78 1.73-1.73v-1.68h.19c1.43 0 2.79-.61 3.74-1.68 1.19-1.33 1.55-3.14 1.06-4.78.56-1.28.85-2.63.85-4.03zm-13.5 6.95c-1.38 0-2.5-1.12-2.5-2.5s1.12-2.5 2.5-2.5 2.5 1.12 2.5 2.5-1.12 2.5-2.5 2.5zm3.5 2.87c-1.39 0-1.5-.95-1.5-1.25 0-.69.52-2 1.5-2s1.5 1.31 1.5 2c0 .3-.11 1.25-1.5 1.25zm3.5-2.85c-1.38 0-2.5-1.12-2.5-2.5s1.12-2.5 2.5-2.5 2.5 1.12 2.5 2.5-1.12 2.5-2.5 2.5z" fill="#ffffff" data-original="#000000" style="" class=""/></g></g></svg>
